# AST/ASF file generated using VICON BodyLanguage
# -----------------------------------------------
:version 1.10
:name VICON
:units
  mass 1.0
  length 0.45
  angle deg
:documentation
   .ast/.asf automatically generated from VICON data using
   VICON BodyBuilder and BodyLanguage model FoxedUp or BRILLIANT.MOD
:root
   order TX TY TZ RX RY RZ
   axis XYZ
   position 0 0 0  
   orientation 0 0 0 
:bonedata
  begin
     id 1 
     name lhipjoint
     direction 0.716248 -0.617586 0.324924 
     length 2.63557 
     axis 0 0 0  XYZ
  end
  begin
     id 2 
     name lfemur
     direction 0.34202 -0.939693 0  
     length 7.01235  
     axis 0 0 20  XYZ
    dof rx ry rz
    limits (-160.0 20.0)
           (-70.0 70.0)
           (-60.0 70.0)
  end
  begin
     id 3 
     name ltibia
     direction 0.34202 -0.939693 0   
     length 8.14348   
     axis 0 0 20   XYZ
    dof rx
    limits (-10.0 170.0)
  end
  begin
     id 4 
     name lfoot
     direction 0.0982064 -0.26982 0.95789   
     length 1.99077   
     axis -90 7.62852e-016 20   XYZ
    dof rx rz
    limits (-45.0 90.0)
           (-70.0 20.0)
  end
  begin
     id 5 
     name ltoes
     direction 1.53511e-011 -4.21891e-011 1   
     length 0.99735   
     axis -90 7.62852e-016 20   XYZ
    dof rx
    limits (-90.0 20.0)
  end
  begin
     id 6 
     name rhipjoint
     direction -0.687828 -0.642391 0.337975   
     length 2.5338  
     axis 0 0 0  XYZ 
  end
  begin
     id 7 
     name rfemur
     direction -0.34202 -0.939693 0   
     length 6.90199   
     axis 0 0 -20   XYZ
    dof rx ry rz
    limits (-160.0 20.0)
           (-70.0 70.0)
           (-70.0 60.0)
  end
  begin
     id 8 
     name rtibia
     direction -0.34202 -0.939693 0   
     length 8.07725   
     axis 0 0 -20   XYZ
    dof rx
    limits (-10.0 170.0)
 end
 begin
     id 9 
     name rfoot
     direction -0.0912384 -0.250675 0.963762   
     length 2.11621  
     axis -90 -7.62852e-016 -20   XYZ
    dof rx rz
    limits (-45.0 90.0)
           (-20.0 70.0)
  end
  begin
     id 10 
     name rtoes
     direction -1.5359e-011 -4.21894e-011 1   
     length 1.06031   
     axis -90 -7.62852e-016 -20   XYZ
    dof rx
    limits (-90.0 20.0)
  end
  begin
     id 11 
     name lowerback
     direction -0.0403572 0.987953 -0.149396   
     length 2.05637   
     axis 0 0 0   XYZ
    dof rx ry rz
    limits (-20.0 45.0)
           (-30.0 30.0)
           (-30.0 30.0)
  end
  begin
     id 12 
     name upperback
     direction -0.00512151 0.997598 0.0690792   
     length 2.01086   
     axis 0 0 0   XYZ
    dof rx ry rz
    limits (-20.0 45.0)
           (-30.0 30.0)
           (-30.0 30.0)
  end
  begin
     id 13 
     name thorax
     direction 0.0136133 0.989392 0.14463   
     length 2.09035   
     axis 0 0 0   XYZ
    dof rx ry rz
    limits (-20.0 45.0)
           (-30.0 30.0)
           (-30.0 30.0)
  end
  begin
     id 14 
     name lowerneck
     direction 0.0250714 0.992811 0.11704   
     length 1.70806   
     axis 0 0 0   XYZ
    dof rx ry rz
    limits (-20.0 45.0)
           (-30.0 30.0)
           (-30.0 30.0)
  end
  begin
     id 15 
     name upperneck
     direction -0.0519205 0.998394 -0.0226787   
     length 1.6689   
     axis 0 0 0   XYZ
    dof rx ry rz
    limits (-20.0 45.0)
           (-30.0 30.0)
           (-30.0 30.0)
  end
  begin
     id 16
     name head
     direction -0.0201693 0.999547 -0.0223192  
     length 1.83412  
     axis 0 0 0   XYZ
    dof rx ry rz
    limits (-20.0 45.0)
           (-30.0 30.0)
           (-30.0 30.0)
  end
  begin
     id 17 
     name lclavicle
     direction 0.89585 0.444077 -0.0157448  
     length 3.39587  
     axis 0 0 0   XYZ
    dof ry rz
    limits (-20.0 10.0)
           (0.0 20.0)
  end
  begin
     id 18 
     name lhumerus
     direction 1 -4.48956e-011 1.99132e-028   
     length 5.79199   
     axis 180 -30 -90   XYZ
    dof rx ry rz
    limits (-60.0 90.0)
           (-90.0 90.0)
           (-90.0 90.0)
  end
  begin
     id 19
     name lradius
     direction 1 -4.48974e-011 8.72912e-028   
     length 3.49908   
     axis 180 -30 -90   XYZ
    dof rx
    limits (-10.0 170.0)
  end
  begin
     id 20
     name lwrist
     direction 1 -4.48994e-011 4.76442e-027   
     length 1.74954   
     axis -3.27502e-015 90 90   XYZ
    dof ry
    limits (-180.0 0.0)
 end
  begin
     id 21 
     name lhand
     direction 1 -4.48945e-011 9.531e-027   
     length 0.593861   
     axis -6.08098e-015 90 90   XYZ
    dof rx rz
    limits (-90.0 90.0)
           (-45.0 45.0)
  end
  begin
     id 22 
     name lfingers
     direction 1 -4.48945e-011 1.9062e-026   
     length 0.478786   
     axis -1.21619e-014 90 90   XYZ
    dof rx
    limits (0.0 90.0)
  end
  begin
     id 23
     name lthumb
     direction 0.707107 -6.34904e-011 0.707107   
     length 0.687444   
     axis -90 45 -9.86923e-015   XYZ
    dof rx rz
    limits (-45.0 45.0)
           (-45.0 45.0)
  end
  begin
     id 24 
     name rclavicle
     direction -0.940466 0.338394 0.0318182   
     length 3.51226  
     axis 0 0 0   XYZ 
    dof ry rz
    limits (-10.0 20.0)
           (-20.0 0.0)
  end
  begin
     id 25 
     name rhumerus
     direction -1 -4.48976e-011 2.0905e-027  
     length 5.73799   
     axis 180 30 90   XYZ
    dof rx ry rz
    limits (-90.0 60.0)
           (-90.0 90.0)
           (-90.0 90.0)
  end
  begin
     id 26 
     name rradius
     direction -1 -4.48968e-011 -9.39692e-029   
     length 3.57916   
     axis 180 30 90   XYZ
    dof rx
    limits (-10.0 170.0)
  end
  begin
     id 27 
     name rwrist
     direction -1 -4.48959e-011 4.7652e-027   
     length 1.78958   
     axis -3.27502e-015 -90 -90   XYZ
    dof ry
    limits (-180.0 0.0)
  end
  begin
     id 28
     name rhand
     direction -1 -4.49042e-011 9.5267e-027   
     length 0.615577   
     axis -6.08098e-015 -90 -90   XYZ
    dof rx rz
    limits (-90.0 90.0)
           (-45.0 45.0)
  end
  begin
     id 29
     name rfingers
     direction -1 -4.48935e-011 1.90629e-026   
     length 0.496294   
     axis -1.21619e-014 -90 -90   XYZ
    dof rx
    limits (0.0 90.0)
  end
  begin
     id 30
     name rthumb
     direction -0.707107 -6.34977e-011 0.707107   
     length 0.712582   
     axis -90 -45 9.86923e-015   XYZ
    dof rx rz
    limits (-45.0 45.0)
           (-45.0 45.0)
  end
:hierarchy
  begin
    root lhipjoint rhipjoint lowerback
    lhipjoint lfemur
    lfemur ltibia
    ltibia lfoot
    lfoot ltoes
    rhipjoint rfemur
    rfemur rtibia
    rtibia rfoot
    rfoot rtoes
    lowerback upperback
    upperback thorax
    thorax lowerneck lclavicle rclavicle
    lowerneck upperneck
    upperneck head
    lclavicle lhumerus
    lhumerus lradius
    lradius lwrist
    lwrist lhand lthumb
    lhand lfingers
    rclavicle rhumerus
    rhumerus rradius
    rradius rwrist
    rwrist rhand rthumb
    rhand rfingers
  end

#!OML:ASF H:\Terrain\Patient Classification 1\PaulMetrics\March17Take5\PaulMetrics.ASF
:FULLY-SPECIFIED
:DEGREES
1
root 11.2364 16.831 -24.7735 7.88531 -7.79825 1.28176
lowerback 4.00084 1.37748 -5.75326
upperback -1.95727 1.42206 -1.97028
thorax -4.37065 0.838509 1.07073
lowerneck -5.12897 7.75928 6.22347
upperneck 7.27874 10.668 -8.9118
head 3.82397 5.08515 -3.13533
rclavicle -2.48481e-014 -7.15625e-015
rhumerus -45.9931 13.1933 -90.3425
rradius 46.1433
rwrist -11.2837
rhand -21.5198 -30.754
rfingers 7.12502
rthumb 4.8725 -60.6779
lclavicle -2.48481e-014 -7.15625e-015
lhumerus -43.9113 -8.9585 84.009
lradius 36.3969
lwrist 18.0655
lhand -6.83474 -20.0428
lfingers 7.12502
lthumb 19.0298 9.04623
rfemur 11.253 -2.46499 20.8706
rtibia 18.687
rfoot -7.80084 -14.5135
rtoes -29.218
lfemur -39.2038 -1.07101 -21.1911
ltibia 37.1739
lfoot -7.39906 8.52059
ltoes -7.46794
2
root 11.2664 16.851 -24.6278 7.72125 -7.5975 1.34228
lowerback 4.11588 1.36227 -5.6528
upperback -1.91252 1.39751 -2.05425
thorax -4.38259 0.82166 0.927996
lowerneck -5.20997 7.64441 6.36072
upperneck 7.49794 10.5204 -8.97895
head 3.90298 5.00725 -3.18086
rclavicle -3.46879e-014 6.04305e-014
rhumerus -46.0496 13.075 -90.4096
rradius 45.764
rwrist -11.818
rhand -22.1279 -30.4176
rfingers 7.12502
rthumb 4.28522 -60.3542
lclavicle -3.46879e-014 6.04305e-014
lhumerus -43.6281 -9.21365 83.9879
lradius 35.6895
lwrist 17.6618
lhand -7.01877 -20.2003
lfingers 7.12502
lthumb 18.8528 8.90606
rfemur 10.0533 -2.75257 20.4775
rtibia 21.7198
rfoot -6.69603 -14.3519
rtoes -26.759
lfemur -38.5609 -1.15082 -21.4948
ltibia 37.297
lfoot -7.75547 8.28705
ltoes -6.94619
3
root 11.2966 16.8614 -24.4879 7.50946 -7.23234 1.34063
lowerback 4.344 1.33999 -5.46438
upperback -1.90656 1.35953 -2.11835
thorax -4.49669 0.798627 0.754525
lowerneck -5.56435 7.42637 6.59615
upperneck 8.08044 10.2451 -9.1075
head 4.13524 4.85297 -3.25489
rclavicle -7.95139e-016 -4.77083e-015
rhumerus -46.2473 12.5388 -90.3458
rradius 45.4223
rwrist -12.0918
rhand -22.2956 -30.1364
rfingers 7.12502
rthumb 4.12328 -60.0762
lclavicle -7.95139e-016 -4.77083e-015
lhumerus -43.475 -9.46386 83.9225
lradius 35.2661
lwrist 17.3116
lhand -6.20648 -19.1333
lfingers 7.12502
lthumb 19.6339 9.8952
rfemur 8.77648 -3.15047 20.2252
rtibia 25.0419
rfoot -5.77431 -14.3416
rtoes -24.0895
lfemur -37.9025 -1.36299 -21.6949
ltibia 37.3668
lfoot -8.20389 7.92751
ltoes -6.17877
4
root 11.3232 16.8685 -24.3549 7.43375 -7.0018 1.45067
lowerback 4.42418 1.32473 -5.55418
upperback -1.90777 1.32705 -2.12691
thorax -4.54408 0.785912 0.796427
lowerneck -6.61617 7.23124 6.92175
upperneck 9.33939 10.0177 -9.32799
head 4.70362 4.68937 -3.33803
rclavicle 2.33572e-014 -1.59028e-014
rhumerus -46.5145 12.3042 -90.2934
rradius 45.2088
rwrist -12.6809
rhand -22.7651 -30.0075
rfingers 7.12502
rthumb 3.6699 -59.9557
lclavicle 2.33572e-014 -1.59028e-014
lhumerus -43.2136 -9.42466 83.764
lradius 34.7813
lwrist 16.647
lhand -4.77085 -18.0454
lfingers 7.12502
lthumb 21.0136 10.8361
rfemur 7.34627 -3.38931 19.8771
rtibia 28.1626
rfoot -4.25434 -14.3687
rtoes -22.172
lfemur -37.3501 -1.57558 -21.9686
ltibia 37.3391
lfoot -8.68105 7.7447
ltoes -5.52797
5
root 11.3499 16.879 -24.2281 7.53337 -6.73868 1.84226
lowerback 4.46672 1.22818 -5.92388
upperback -2.05967 1.16194 -2.16494
thorax -4.72692 0.720686 0.973065
lowerneck -6.9129 7.10866 7.24566
upperneck 10.0092 9.89412 -9.66046
head 4.98146 4.60217 -3.48575
rclavicle -1.59028e-015 3.18055e-015
rhumerus -46.839 12.4632 -90.2212
rradius 44.9028
rwrist -12.6471
rhand -22.4341 -30.0023
rfingers 7.12502
rthumb 3.98961 -59.9447
lclavicle -1.59028e-015 3.18055e-015
lhumerus -43.1728 -9.33382 83.7254
lradius 34.1513
lwrist 15.7107
lhand -4.86363 -18.0742
lfingers 7.12502
lthumb 20.9244 10.8172
rfemur 5.58495 -3.69204 19.2245
rtibia 31.3338
rfoot -2.86635 -14.3265
rtoes -20.1579
lfemur -36.9297 -1.67629 -22.6102
ltibia 37.1701
lfoot -9.04285 7.35865
ltoes -5.23142
6
root 11.3753 16.894 -24.1035 7.63076 -6.48362 2.24652
lowerback 4.55988 1.15318 -6.22342
upperback -2.24793 1.0194 -2.27448
thorax -4.97418 0.666291 1.03304
lowerneck -6.21186 7.13172 7.03755
upperneck 9.62594 9.91884 -9.36682
head 4.72222 4.64984 -3.38777
rclavicle 2.17669e-014 3.97569e-015
rhumerus -47.0798 12.4595 -90.1581
rradius 44.4437
rwrist -11.9772
rhand -21.8219 -30.1059
rfingers 7.12502
rthumb 4.58077 -60.0364
lclavicle 2.17669e-014 3.97569e-015
lhumerus -43.4098 -9.74796 83.9553
lradius 33.6375
lwrist 14.5757
lhand -6.96567 -19.2202
lfingers 7.12502
lthumb 18.9038 9.88116
rfemur 3.77818 -4.00542 18.5798
rtibia 34.5577
rfoot -2.27159 -14.3117
rtoes -16.8481
lfemur -36.4267 -1.71843 -23.2865
ltibia 36.8367
lfoot -9.268 7.00396
ltoes -5.52045
